<svg width="22" height="22" viewBox="0 0 22 22" fill="none" xmlns="http://www.w3.org/2000/svg">
<g opacity="0.8" clip-path="url(#clip0_2135_31)">
<path fill-rule="evenodd" clip-rule="evenodd" d="M1.37501 15.8125C1.37501 15.9948 1.44744 16.1697 1.57637 16.2986C1.7053 16.4275 1.88017 16.5 2.06251 16.5H18.2779L13.9508 20.8257C13.8217 20.9548 13.7491 21.1299 13.7491 21.3125C13.7491 21.495 13.8217 21.6701 13.9508 21.7992C14.0799 21.9283 14.2549 22.0008 14.4375 22.0008C14.6201 22.0008 14.7952 21.9283 14.9243 21.7992L20.4243 16.2992C20.4883 16.2353 20.5391 16.1595 20.5737 16.076C20.6084 15.9924 20.6262 15.9029 20.6262 15.8125C20.6262 15.722 20.6084 15.6325 20.5737 15.549C20.5391 15.4654 20.4883 15.3896 20.4243 15.3257L14.9243 9.8257C14.7952 9.69661 14.6201 9.62409 14.4375 9.62409C14.2549 9.62409 14.0799 9.69661 13.9508 9.8257C13.8217 9.9548 13.7491 10.1299 13.7491 10.3125C13.7491 10.495 13.8217 10.6701 13.9508 10.7992L18.2779 15.125H2.06251C1.88017 15.125 1.7053 15.1974 1.57637 15.3263C1.44744 15.4552 1.37501 15.6301 1.37501 15.8125ZM20.625 6.18745C20.625 6.36979 20.5526 6.54466 20.4236 6.67359C20.2947 6.80252 20.1198 6.87495 19.9375 6.87495H3.72213L8.04926 11.2007C8.11318 11.2646 8.16388 11.3405 8.19848 11.424C8.23307 11.5075 8.25088 11.5971 8.25088 11.6875C8.25088 11.7779 8.23307 11.8674 8.19848 11.9509C8.16388 12.0344 8.11318 12.1103 8.04926 12.1742C7.98534 12.2381 7.90945 12.2888 7.82593 12.3234C7.74242 12.358 7.6529 12.3758 7.56251 12.3758C7.47211 12.3758 7.3826 12.358 7.29908 12.3234C7.21556 12.2888 7.13968 12.2381 7.07576 12.1742L1.57576 6.6742C1.51173 6.61034 1.46094 6.53448 1.42628 6.45095C1.39162 6.36743 1.37378 6.27788 1.37378 6.18745C1.37378 6.09702 1.39162 6.00748 1.42628 5.92396C1.46094 5.84043 1.51173 5.76457 1.57576 5.7007L7.07576 0.200703C7.20485 0.0716088 7.37994 -0.000915527 7.56251 -0.000915527C7.74507 -0.000915527 7.92016 0.0716088 8.04926 0.200703C8.17835 0.329797 8.25088 0.504886 8.25088 0.687453C8.25088 0.87002 8.17835 1.04511 8.04926 1.1742L3.72213 5.49995H19.9375C20.1198 5.49995 20.2947 5.57239 20.4236 5.70132C20.5526 5.83025 20.625 6.00512 20.625 6.18745Z" fill="black"/>
</g>
<defs>
<clipPath id="clip0_2135_31">
<rect width="22" height="22" fill="white"/>
</clipPath>
</defs>
</svg>
