<?xml version="1.0" encoding="UTF-8"?>
<svg id="Layer_2" data-name="Layer 2" xmlns="http://www.w3.org/2000/svg" viewBox="0 0 621.65 250.44">
  <defs>
    <style>
      .cls-1 {
        stroke-miterlimit: 10;
        stroke-width: 15px;
      }

      .cls-1, .cls-2 {
        fill: none;
        stroke: #8e2157;
      }

      .cls-2 {
        stroke-linecap: round;
        stroke-linejoin: round;
        stroke-width: 9px;
      }

      .cls-3, .cls-4, .cls-5 {
        fill: #8e2157;
      }

      .cls-4 {
        font-family: Candara-Bold, Candara;
        font-size: 40px;
        font-weight: 700;
      }

      .cls-6 {
        fill: #fbb03b;
      }

      .cls-5 {
        font-family: PoorRichard-Regular, 'Poor Richard';
        font-size: 106.16px;
      }

      .cls-7 {
        letter-spacing: -.02em;
      }
    </style>
  </defs>
  <g id="Layer_1-2" data-name="Layer 1">
    <path class="cls-1" d="m159.27,100.03c.08,25.25.15,49.44-17.95,69.23-21.27,23.25-52.03,23.39-57.82,23.3-6.09-.1-33.54-1.23-54.25-22.31-20.24-20.59-20.92-46.86-21.52-70.22-.63-24.3-1.3-51.99,18.67-72.27C46.32,7.53,83.49,7.5,83.49,7.5c0,0,34.74-.06,54.12,17.89,21.46,19.87,21.57,48.94,21.65,74.64Z"/>
    <path class="cls-2" d="m102.14,27.59c3.54.87,20.12,5.36,28.66,21.13,3.29,6.08,4.35,11.92,4.68,16.04"/>
    <path class="cls-2" d="m63.07,164.98c-3.54-.85-20.15-5.25-28.78-20.97-3.33-6.06-4.42-11.89-4.77-16.01"/>
    <text class="cls-5" transform="translate(175.83 170.49)"><tspan x="0" y="0">AIRLINES</tspan></text>
    <path class="cls-6" d="m8.61,92.6c-3.86,0-3.87,6,0,6s3.87-6,0-6Z"/>
    <path class="cls-3" d="m183.7,184.62c-32.37,3.11-56.88-22.52-73.28-47.2-8.58-12.92-16.14-26.53-25.27-39.08-7.1-9.76-16.67-19.97-29.66-20.11-17.01-.18-30.82,19.62-47.99,13.71-3.66-1.26-5.23,4.53-1.6,5.79,15.35,5.29,27.42-6.9,40.85-11.8,16.47-6.02,27.75,7.39,36.18,19.66,17.22,25.07,30.52,53.93,56.11,71.87,13.04,9.14,28.62,14.72,44.66,13.18,3.81-.37,3.85-6.37,0-6Z"/>
    <path class="cls-3" d="m621.2,193.95c-5.21-8.67-15.62-9.69-24.83-9.75-15.32-.11-30.65.03-45.98.05-30.65.03-61.3.06-91.95.1-60.64.06-121.27.13-181.91.19l-103.95.11c-3.86,0-3.84,6,.03,6,117.94-.12,235.88-.25,353.82-.37,16.66-.02,33.32-.03,49.97-.05,7.55,0,15.12-.22,22.67.01,6.18.19,13.47.97,16.96,6.77,1.99,3.31,7.16.27,5.17-3.05Z"/>
    <text class="cls-4" transform="translate(130.75 239.32)"><tspan x="0" y="0">VUI TỪNG CHUYẾN B</tspan><tspan class="cls-7" x="359.22" y="0">A</tspan><tspan x="383.46" y="0">Y</tspan></text>
  </g>
</svg>