<?xml version="1.0" encoding="UTF-8"?>
<svg id="Layer_2" data-name="Layer 2" xmlns="http://www.w3.org/2000/svg" viewBox="0 0 621.65 239.99">
  <defs>
    <style>
      .cls-1 {
        fill: #fff;
      }

      .cls-2 {
        stroke-miterlimit: 10;
        stroke-width: 15px;
      }

      .cls-2, .cls-3 {
        fill: none;
        stroke: #fff;
      }

      .cls-3 {
        stroke-linecap: round;
        stroke-linejoin: round;
        stroke-width: 9px;
      }

      .cls-4 {
        fill: #fbb03b;
      }
    </style>
  </defs>
  <g id="Layer_1-2" data-name="Layer 1">
    <path class="cls-2" d="m159.27,100.03c.08,25.25.15,49.44-17.95,69.23-21.27,23.25-52.03,23.39-57.82,23.3-6.09-.1-33.54-1.23-54.25-22.31-20.24-20.59-20.92-46.86-21.52-70.22-.63-24.3-1.3-51.99,18.67-72.27C46.32,7.53,83.49,7.5,83.49,7.5c0,0,34.74-.06,54.12,17.89,21.46,19.87,21.57,48.94,21.65,74.64Z"/>
    <path class="cls-3" d="m102.14,27.59c3.54.87,20.12,5.36,28.66,21.13,3.29,6.08,4.35,11.92,4.68,16.04"/>
    <path class="cls-3" d="m63.07,164.98c-3.54-.85-20.15-5.25-28.78-20.97-3.33-6.06-4.42-11.89-4.77-16.01"/>
    <g>
      <path class="cls-1" d="m213.72,114.46c-.69-1.59-1.21-2.38-1.56-2.38-.42,0-1.05,1.1-1.89,3.31l-11.06,25.33-9.56,21.34c-.28.66-.42,1.23-.42,1.71,0,.52.2.98.6,1.4.4.42,1.34.83,2.83,1.24,1.49.42,2.42.83,2.8,1.25.38.42.57.89.57,1.42,0,1.61-1.04,2.41-3.11,2.41-.48,0-1.67-.15-3.55-.44-1.88-.29-3.45-.44-4.69-.44s-2.59.13-3.94.39c-1.35.26-2.33.39-2.95.39-.86,0-1.57-.23-2.12-.68-.55-.46-.83-.99-.83-1.6,0-.9.17-1.49.52-1.76.34-.28.98-.48,1.91-.62,2.68-.45,4.53-1.46,5.54-3.03,1.01-1.57,3.63-7.14,7.85-16.72l12.54-27.99c3.08-6.7,5.05-11.15,5.94-13.35.88-2.19,1.32-3.9,1.32-5.11,0-.41-.15-1.17-.46-2.25-.31-1.09-.46-1.87-.46-2.36,0-1,.53-1.5,1.6-1.5,1.76,0,3.17.74,4.24,2.23,1.07,1.49,2.5,4.29,4.3,8.4l14.36,32.45c5.22,11.82,8.52,19.13,9.9,21.93,1.38,2.8,2.52,4.61,3.4,5.42.89.81,1.95,1.41,3.18,1.79,1.24.38,2.08.75,2.53,1.11.45.36.68.98.68,1.84,0,1.21-1.09,1.81-3.27,1.81-.73,0-2.05-.11-3.97-.34-1.92-.22-3.83-.34-5.74-.34s-3.89.13-5.95.39c-2.06.26-3.47.39-4.23.39-1.18,0-2.11-.2-2.8-.6-.69-.4-1.04-.95-1.04-1.65,0-.59.21-1.08.63-1.47.42-.38,1.54-.66,3.36-.84,1.83-.17,3.01-.56,3.55-1.16.54-.6.81-1.35.81-2.25,0-.96-.98-3.63-2.95-7.99-1.97-4.36-3.2-6.68-3.68-6.95-.48-.28-1.41-.41-2.79-.41h-23.13c-.9,0-1.71-.29-2.43-.86s-1.09-1.25-1.09-2.02c0-.59.28-1.12.85-1.57.57-.45,1.22-.68,1.94-.68h22.25c1.24,0,1.86-.22,1.86-.67,0-.28-.24-.95-.73-2.02l-11.46-25.87Z"/>
      <path class="cls-1" d="m261.88,106.77c0-2-.39-3.37-1.17-4.11-.78-.74-1.78-1.29-3.01-1.65-1.23-.36-2.07-.72-2.54-1.07-.47-.35-.7-.98-.7-1.89,0-.52.23-.96.7-1.31.47-.35,1.01-.52,1.63-.52,1.07,0,2.69.17,4.86.52,2.17.35,3.83.52,4.97.52,1.03,0,2.56-.16,4.58-.47,2.02-.31,3.53-.47,4.53-.47,1.72,0,2.59.72,2.59,2.15,0,.87-.23,1.47-.67,1.78-.45.32-1.37.6-2.75.86-1.38.26-2.38.98-3.01,2.17-.62,1.19-.93,2.92-.93,5.19v53.64c0,1,.23,1.89.7,2.66.47.78,1.5,1.38,3.11,1.81s2.58.88,2.93,1.35c.34.47.52,1.02.52,1.65,0,1.26-1.07,1.89-3.21,1.89-.97,0-2.38-.17-4.24-.49-1.86-.33-3.28-.49-4.24-.49-.9,0-2.27.13-4.11.39-1.85.26-3.23.39-4.16.39-2.59,0-3.88-.82-3.88-2.47,0-.45.14-.86.42-1.21.28-.35,1.25-.67,2.93-.96,1.68-.29,2.79-1.03,3.34-2.22.55-1.19.83-2.52.83-4v-53.64Z"/>
      <path class="cls-1" d="m289.56,104.61c0-2.63-1.79-4.05-5.36-4.26-2.47-.14-3.71-.94-3.71-2.41s1.42-2.31,4.25-2.31c1.35,0,2.83.12,4.45.36,1.62.24,3,.36,4.14.36.76,0,2.86-.24,6.32-.73,3.45-.48,6.11-.73,7.98-.73,7.11,0,12.89,1.83,17.32,5.5,4.44,3.67,6.65,8.43,6.65,14.27,0,3.74-1.1,6.83-3.29,9.27s-5.97,4.7-11.33,6.77c-1,.38-1.5.78-1.5,1.19,0,.28.21.73.62,1.35,1.9,2.7,5.49,8.53,10.75,17.5,5.26,8.97,8.07,13.65,8.41,14.05s1.26.85,2.75,1.35c1.49.5,2.43,1,2.83,1.5s.6,1.05.6,1.67c0,.79-.52,1.46-1.56,2.03-1.04.56-1.87.85-2.49.85-1.59,0-3.53-.61-5.81-1.84-2.28-1.22-3.79-2.27-4.51-3.13-1.35-1.72-5.76-8.77-13.24-21.12-3.5-5.76-5.5-9.01-6.02-9.73-1.87-2.69-3.7-4.42-5.5-5.18-.45-.17-.74-.36-.88-.55-.14-.19-.21-.6-.21-1.23,0-1.5.9-2.26,2.69-2.26.17,0,.65.06,1.45.18s1.57.18,2.33.18c3.79,0,6.96-1.23,9.51-3.69,2.55-2.46,3.83-5.89,3.83-10.28,0-3.12-1.43-6.21-4.3-9.3-2.87-3.08-6.84-4.62-11.92-4.62-1.9,0-3.29.22-4.17.65s-1.43.97-1.66,1.61c-.23.64-.34,1.48-.34,2.52v58.15c0,1.14.49,2.07,1.49,2.78.99.71,2.28,1.06,3.88,1.06,1.74,0,2.9.22,3.49.67.59.45.89,1.1.89,1.95s-.37,1.51-1.11,2.05c-.74.55-1.85.82-3.34.82-1.35,0-2.99-.39-4.94-1.17s-3.49-1.17-4.63-1.17c-.97,0-2.41.37-4.35,1.11-1.93.74-3.45,1.11-4.55,1.11-3.17,0-4.76-.99-4.76-2.98,0-.75.26-1.31.77-1.67.52-.36,1.8-.54,3.87-.54,1.24,0,2.25-.28,3.04-.83.79-.55,1.19-1.23,1.19-2.03v-59.13Z"/>
      <path class="cls-1" d="m383.53,166.4c1.28,0,2.4-.3,3.35-.9s1.63-1.93,2.03-4,.86-3.31,1.38-3.74c.52-.43,1.14-.64,1.87-.64.52,0,1.05.28,1.61.83.55.55.83,1.3.83,2.23,0,3.01.21,6.01.62,9.02,0,1.87-.9,2.71-2.7,2.54-1.18-.14-2.99-.21-5.44-.21h-40.38c-3.18,0-4.77-.82-4.77-2.46,0-1.08.29-1.77.86-2.07.57-.3,1.44-.46,2.62-.5,2.25-.14,3.65-.73,4.2-1.79.55-1.05.83-2.25.83-3.6v-54.38c0-1.28-.31-2.43-.93-3.45-.62-1.02-1.98-1.86-4.07-2.51-2.09-.66-3.35-1.27-3.78-1.83-.43-.56-.65-1.2-.65-1.92,0-.41.26-.81.78-1.2.52-.39,1.14-.59,1.86-.59.48,0,1.65.32,3.49.96,1.85.64,3.89.96,6.13.96,2.79,0,5.43-.35,7.92-1.06,2.48-.71,4.09-1.06,4.81-1.06.79,0,1.49.28,2.1.85.6.56.91,1.19.91,1.87,0,.58-.18,1.07-.54,1.46-.36.39-1.3.74-2.83,1.05-1.94.38-3.3.9-4.09,1.56-1.35,1.14-2.02,3.08-2.02,5.81v51.89c0,2.59.41,4.39,1.22,5.39.81,1,2,1.5,3.56,1.5h19.26Z"/>
      <path class="cls-1" d="m405.62,106.77c0-2-.39-3.37-1.17-4.11s-1.78-1.29-3.01-1.65c-1.23-.36-2.07-.72-2.54-1.07-.47-.35-.7-.98-.7-1.89,0-.52.23-.96.7-1.31.46-.35,1.01-.52,1.63-.52,1.07,0,2.69.17,4.86.52,2.17.35,3.83.52,4.97.52,1.03,0,2.56-.16,4.58-.47s3.53-.47,4.53-.47c1.72,0,2.59.72,2.59,2.15,0,.87-.22,1.47-.67,1.78-.45.32-1.37.6-2.75.86-1.38.26-2.38.98-3.01,2.17-.62,1.19-.93,2.92-.93,5.19v53.64c0,1,.23,1.89.7,2.66.47.78,1.5,1.38,3.11,1.81,1.61.43,2.58.88,2.93,1.35.35.47.52,1.02.52,1.65,0,1.26-1.07,1.89-3.21,1.89-.97,0-2.38-.17-4.24-.49s-3.28-.49-4.24-.49c-.9,0-2.27.13-4.11.39-1.85.26-3.23.39-4.16.39-2.59,0-3.88-.82-3.88-2.47,0-.45.14-.86.41-1.21s1.25-.67,2.93-.96,2.79-1.03,3.34-2.22c.55-1.19.83-2.52.83-4v-53.64Z"/>
      <path class="cls-1" d="m480.63,105.54c0-1.42-.49-2.55-1.48-3.4-.98-.85-2.24-1.27-3.76-1.27-1.18,0-2.13-.21-2.85-.61-.73-.41-1.09-.94-1.09-1.59,0-.79.34-1.41,1.01-1.87.67-.46,1.4-.69,2.2-.69.41,0,1.82.21,4.21.62,2.4.41,3.99.62,4.79.62,1.03,0,2.4-.16,4.11-.47,1.71-.31,2.94-.47,3.7-.47,2.07,0,3.1.82,3.1,2.46,0,1.33-1.04,2-3.11,2-1.8,0-3.12.28-3.97.83s-1.37,1.22-1.55,2c-.19.78-.29,1.77-.29,2.98v51.77c0,3.46.38,6.12,1.13,7.99.75,1.87,1.13,3.37,1.13,4.51,0,1.07-.46,1.61-1.39,1.61-.65,0-1.15-.14-1.5-.42-.34-.28-.86-.9-1.55-1.86l-43.22-57.07c-.45-.59-.87-.88-1.25-.88-.52,0-.78.66-.78,1.96v47.81c0,1.45.61,2.6,1.84,3.46,1.23.86,2.39,1.29,3.5,1.29,2.76,0,4.15.91,4.15,2.73,0,.56-.16,1.01-.47,1.36-.31.35-1.03.52-2.17.52s-2.76-.15-4.96-.44c-2.21-.29-3.64-.44-4.29-.44-.9,0-2.41.15-4.55.44-2.14.29-3.48.44-4.03.44-1.76,0-2.64-.82-2.64-2.46,0-1.36,1.04-2.05,3.11-2.05,1.69,0,3.05-.47,4.07-1.42,1.02-.95,1.53-2.3,1.53-4.06v-55.14c0-1.69-.43-3.03-1.3-4.03-.86-1-1.95-1.5-3.27-1.5-1.76,0-2.95-.19-3.55-.58-.6-.38-.91-.98-.91-1.78,0-1.43.88-2.15,2.64-2.15.31,0,1.08.1,2.33.29,1.24.19,2.27.28,3.1.28.62,0,1.35-.09,2.2-.28s1.56-.29,2.15-.29c1,0,2.23.81,3.7,2.43,1.46,1.62,6.49,8.17,15.09,19.63l22.92,30.55c.38.52.75.78,1.09.78.76,0,1.14-.93,1.14-2.8v-41.37Z"/>
      <path class="cls-1" d="m537.7,166.81c1.77,0,3.11-.46,4.02-1.39.92-.93,1.38-2.11,1.38-3.56,0-1.31.29-2.35.88-3.12.59-.77,1.28-1.16,2.07-1.16s1.46.36,2,1.09c.54.73.8,1.69.8,2.9s.05,2.51.16,3.91c.1,1.4.16,2.36.16,2.88,0,1.42-.2,2.34-.6,2.77-.4.43-1.43.65-3.08.65h-41.94c-2.94,0-4.95-.22-6.04-.67-1.09-.44-1.63-1.11-1.63-2,0-1.4.99-2.1,2.96-2.1,2.52,0,4.16-.41,4.92-1.22.76-.81,1.14-2.1,1.14-3.86v-47.43c0-5.11-.09-8.5-.26-10.16s-.6-2.72-1.3-3.19c-.69-.47-2.07-.7-4.15-.7-1.24,0-2.2-.24-2.88-.71-.67-.47-1.01-1.07-1.01-1.81,0-.66.29-1.25.88-1.75.59-.51,1.33-.76,2.23-.76h39.92c1.59,0,2.63.33,3.11.98.48.66.84,1.62,1.06,2.9.22,1.28.34,3.39.34,6.32,0,1.35-.57,2.02-1.71,2.02-.66,0-1.24-.2-1.74-.6-.5-.4-1.05-1.41-1.66-3.03-.61-1.62-1.23-2.65-1.87-3.11-.64-.45-1.38-.68-2.21-.68h-14.23c-2.39,0-3.9.34-4.52,1.01-.62.68-.93,1.69-.93,3.04v10.96c0,2.56.35,4.25,1.04,5.07.69.81,2.1,1.22,4.21,1.22h13.82c1.14,0,2.01-.46,2.6-1.37.59-.92.88-1.94.88-3.08,0-.59.24-1.08.73-1.48.48-.4,1.05-.6,1.71-.6.69,0,1.26.22,1.71.67.45.45.67,1.09.67,1.91,0,.72-.11,1.77-.34,3.13-.23,1.36-.34,2.47-.34,3.34,0,1.31.15,2.69.44,4.13.29,1.45.44,2.33.44,2.64,0,.79-.26,1.45-.78,1.96s-1.12.78-1.81.78c-.73,0-1.33-.32-1.81-.96-.48-.64-.73-1.51-.73-2.62,0-1.31-.35-2.25-1.04-2.8-.69-.55-1.84-.83-3.43-.83h-13.72c-1.25,0-2.27.25-3.07.75s-1.19,1.24-1.19,2.2v33.12c0,1.73.44,2.89,1.32,3.47.88.59,2.4.88,4.54.88h17.86Z"/>
      <path class="cls-1" d="m561.5,109.47c0,1.73.59,3.48,1.78,5.25,1.19,1.78,4.22,4.41,9.11,7.89,9.43,6.66,15.71,12.04,18.82,16.12s4.67,8.45,4.67,13.07c0,6.56-2.54,11.66-7.62,15.3-5.08,3.64-10.64,5.46-16.69,5.46-4.29,0-8.68-.89-13.19-2.67-4.51-1.78-6.76-3.66-6.76-5.62,0-.48.05-1.39.16-2.72.1-1.33.16-3,.16-5,0-.69-.06-1.53-.18-2.51-.12-.99-.18-1.63-.18-1.94,0-1.28.75-1.92,2.26-1.92,1.68,0,2.62,1.28,2.82,3.84.42,4.22,1.9,7.5,4.46,9.85,2.56,2.35,6.1,3.52,10.63,3.52s8.34-1.29,11.33-3.86c2.99-2.57,4.48-5.93,4.48-10.07,0-2.48-1.01-5.12-3.02-7.92s-7.3-7.23-15.84-13.3c-3.52-2.49-6.3-4.6-8.32-6.35-2.02-1.74-3.72-3.81-5.08-6.19-1.37-2.38-2.05-5.1-2.05-8.14,0-4.94,2.24-9.04,6.71-12.29,4.48-3.25,9.63-4.87,15.47-4.87,3.32,0,6.87.82,10.65,2.46,3.78,1.64,5.68,3.57,5.68,5.78,0,.31-.02.8-.05,1.48-.04.67-.05,1.67-.05,2.98,0,.35.07,1.02.21,2.02,0,2.28-.79,3.42-2.36,3.42-.56,0-1.11-.27-1.65-.8-.54-.53-.81-1.11-.81-1.73,0-3.37-1.14-5.96-3.43-7.77-2.29-1.81-5.08-2.71-8.39-2.71-3.75,0-6.97,1.04-9.65,3.11-2.69,2.07-4.03,4.35-4.03,6.83Z"/>
    </g>
    <path class="cls-4" d="m8.61,92.6c-3.86,0-3.87,6,0,6s3.87-6,0-6Z"/>
    <path class="cls-1" d="m183.7,184.62c-32.37,3.11-56.88-22.52-73.28-47.2-8.58-12.92-16.14-26.53-25.27-39.08-7.1-9.76-16.67-19.97-29.66-20.11-17.01-.18-30.82,19.62-47.99,13.71-3.66-1.26-5.23,4.53-1.6,5.79,15.35,5.29,27.42-6.9,40.85-11.8,16.47-6.02,27.75,7.39,36.18,19.66,17.22,25.07,30.52,53.93,56.11,71.87,13.04,9.14,28.62,14.72,44.66,13.18,3.81-.37,3.85-6.37,0-6Z"/>
    <path class="cls-1" d="m621.2,193.95c-5.21-8.67-15.62-9.69-24.83-9.75-15.32-.11-30.65.03-45.98.05-30.65.03-61.3.06-91.95.1-60.64.06-121.27.13-181.91.19l-103.95.11c-3.86,0-3.84,6,.03,6,117.94-.12,235.88-.25,353.82-.37,16.66-.02,33.32-.03,49.97-.05,7.55,0,15.12-.22,22.67.01,6.18.19,13.47.97,16.96,6.77,1.99,3.31,7.16.27,5.17-3.05Z"/>
    <g>
      <path class="cls-1" d="m153.49,213.89c0,1.07-1.49,5.31-4.46,12.73-2.98,7.42-4.46,11.65-4.46,12.7h-5.37c0-1-1.37-5.25-4.11-12.75-2.74-7.5-4.11-11.73-4.11-12.68h6.19c0,.95.87,4.32,2.62,10.12,1.74,5.79,2.62,9.08,2.62,9.86h.33c0-.75.88-3.93,2.63-9.51,1.75-5.59,2.63-9.08,2.63-10.47h5.51Z"/>
      <path class="cls-1" d="m177.63,213.89c-.12,4.38-.18,8.75-.18,13.12,0,8.65-3.54,12.97-10.62,12.97-3.5,0-6.14-.96-7.91-2.87-1.77-1.91-2.66-5.35-2.66-10.31,0-4.38-.06-8.68-.18-12.91h5.53c-.17,4.4-.25,8.65-.25,12.73,0,3.58.46,6.04,1.37,7.36.91,1.33,2.32,1.99,4.22,1.99s3.43-.66,4.32-1.98c.89-1.32,1.33-3.79,1.33-7.41,0-3.97-.08-8.2-.25-12.7h5.29Z"/>
      <path class="cls-1" d="m188.35,239.32h-5.53c.17-4.04.25-8.47.25-13.3s-.08-8.8-.25-12.13h5.53c-.17,3.28-.25,7.32-.25,12.13s.08,9.34.25,13.3Z"/>
      <path class="cls-1" d="m220.44,213.89l-.14,4.2c-2.6-.2-5.06-.29-7.36-.29-.03,2.46-.04,5.2-.04,8.22,0,4.69.07,9.12.21,13.3h-5.47c.17-4.14.25-8.57.25-13.3,0-2.97-.03-5.71-.08-8.22-1.84,0-4.36.1-7.56.31l.16-4.22h20.02Z"/>
      <path class="cls-1" d="m244.8,213.89c-.04,1.2-.07,2.39-.09,3.56s-.04,2.37-.05,3.56c.36-.16.77-.34,1.21-.56.44-.21.87-.47,1.28-.75s.78-.61,1.11-.97.58-.75.73-1.16c-.7-.23-1.26-.58-1.68-1.04-.42-.46-.62-1.02-.62-1.68,0-.48.08-.92.24-1.3.16-.38.39-.71.67-.99.29-.27.62-.48,1.02-.62s.81-.21,1.25-.21c.57,0,1.06.1,1.46.31s.72.49.97.83.43.74.54,1.19.17.91.17,1.38c0,.86-.22,1.71-.67,2.56s-1.05,1.64-1.82,2.39c-.76.75-1.65,1.44-2.67,2.06s-2.09,1.14-3.22,1.54v3.01c0,8.65-3.54,12.97-10.62,12.97-3.5,0-6.14-.96-7.91-2.87-1.77-1.9-2.66-5.34-2.66-10.31,0-4.36-.06-8.67-.18-12.91h5.53c-.09,2.21-.16,4.38-.2,6.48s-.06,4.19-.06,6.25c0,3.59.46,6.05,1.37,7.36.91,1.33,2.32,1.99,4.22,1.99s3.43-.66,4.32-1.97c.89-1.34,1.33-3.82,1.33-7.42,0-1.99-.02-4.04-.06-6.14s-.1-4.29-.2-6.55h5.29Zm-8.22-2.23h-3.42c-.13-.21-1.06-1.11-2.79-2.71-1.73-1.6-2.6-2.48-2.6-2.64h5.68c0,.14.52,1.02,1.56,2.63,1.04,1.61,1.56,2.52,1.56,2.72Z"/>
      <path class="cls-1" d="m276.77,239.32h-4.82c0-.53-1.79-3.35-5.37-8.46-3.75-5.38-5.89-9.06-6.41-11.04h-.31c.33,2.85.49,5.43.49,7.73,0,3.22.09,7.14.27,11.76h-4.8c.2-4.04.29-8.47.29-13.3s-.1-8.8-.29-12.13h5.8c0,.69,1.61,3.44,4.82,8.26,3.42,5.12,5.39,8.59,5.9,10.41h.29c-.31-2.9-.47-5.51-.47-7.81,0-3.53-.09-7.15-.27-10.86h4.88c-.18,3.23-.27,7.27-.27,12.13s.09,9.33.27,13.3Z"/>
      <path class="cls-1" d="m302.51,238.66c-3.1.79-5.69,1.19-7.77,1.19-4.48,0-7.87-1.23-10.19-3.68s-3.47-5.43-3.47-8.94c0-3.68,1.26-6.89,3.78-9.61s6.01-4.08,10.48-4.08c2.1,0,3.95.19,5.55.57l-.64,4.61c-2.04-.53-3.88-.8-5.51-.8-2.75,0-4.8.84-6.15,2.53s-2.03,3.75-2.03,6.18.76,4.66,2.28,6.5,3.61,2.77,6.28,2.77c.74,0,1.6-.08,2.58-.23-.2-1.45-.29-2.86-.29-4.26s-.14-2.99-.41-4.75h5.53c-.1,2-.16,4.02-.16,6.05,0,1.47.05,3.45.16,5.94Z"/>
      <path class="cls-1" d="m334.13,234.69l-.33,4.49c-1.85.44-3.67.66-5.47.66-4.47,0-7.87-1.23-10.21-3.7s-3.51-5.47-3.51-8.99,1.24-6.84,3.72-9.55,5.88-4.06,10.21-4.06c1.59,0,3.09.18,4.51.55l-.68,4.51c-1.54-.5-3.01-.74-4.41-.74-2.64,0-4.61.84-5.9,2.51s-1.93,3.71-1.93,6.1.76,4.57,2.29,6.37,3.67,2.7,6.44,2.7c1.61,0,3.37-.28,5.27-.84Z"/>
      <path class="cls-1" d="m358.53,239.32h-5.53c.13-4.31.2-8.05.2-11.21h-9.84c0,2.84.07,6.58.2,11.21h-5.53c.17-4.3.25-8.73.25-13.3s-.08-8.67-.25-12.13h5.53c-.16,3.66-.23,7.04-.23,10.16h9.92c0-2.75-.08-6.13-.23-10.16h5.53c-.18,3.31-.27,7.35-.27,12.13s.09,9.42.27,13.3Z"/>
      <path class="cls-1" d="m385.27,213.89c-.12,4.38-.18,8.75-.18,13.12,0,8.65-3.54,12.97-10.62,12.97-3.5,0-6.14-.96-7.91-2.87s-2.66-5.35-2.66-10.31c0-4.38-.06-8.68-.18-12.91h5.53c-.17,4.4-.25,8.65-.25,12.73,0,3.58.46,6.04,1.37,7.36s2.32,1.99,4.22,1.99,3.43-.66,4.32-1.98,1.33-3.79,1.33-7.41c0-3.97-.08-8.2-.25-12.7h5.29Z"/>
      <path class="cls-1" d="m409.5,213.89c0,.53-.74,1.97-2.23,4.32-2.28,3.58-3.67,5.81-4.16,6.68-1.48,2.64-2.23,4.6-2.23,5.88,0,2.86.08,5.72.23,8.55h-5.55c.14-2.85.21-5.72.21-8.61,0-1.33-.68-3.34-2.05-6.04-.64-1.25-1.91-3.48-3.83-6.7-1.37-2.3-2.05-3.67-2.05-4.08h6.13c0,.47.82,2.44,2.45,5.93s2.45,5.73,2.45,6.75h.31c0-.94.8-3.07,2.39-6.41s2.39-5.42,2.39-6.27h5.51Z"/>
      <path class="cls-1" d="m429.31,235.03l-.16,4.3h-16.62c.17-3.93.25-8.37.25-13.3s-.08-8.78-.25-12.13h15.86l-.21,4.28c-3.91-.21-7.45-.31-10.62-.31.13,1.81.2,3.95.2,6.41,2.72,0,5.63-.07,8.73-.21v4.08c-3.05-.13-5.96-.2-8.73-.2,0,2.64.05,5.12.16,7.42,3.57,0,7.37-.11,11.41-.33Zm-2.68-23.36h-3.03c-.13-.2-1.21-1.07-3.24-2.62-2.03,1.55-3.11,2.42-3.24,2.62h-3.03c0-.22.65-1.13,1.95-2.71,1.3-1.61,1.95-2.49,1.95-2.64h4.73c0,.14.65,1.02,1.95,2.64,1.3,1.59,1.95,2.49,1.95,2.71Zm5.55-8.52c0,.16-.65,1-1.95,2.54s-2,2.4-2.09,2.58h-2.85c0-.18.41-1.05,1.23-2.6.83-1.54,1.25-2.38,1.25-2.52h4.41Z"/>
      <path class="cls-1" d="m454.58,239.32h-4.82c0-.53-1.79-3.35-5.37-8.46-3.75-5.38-5.89-9.06-6.41-11.04h-.31c.33,2.85.49,5.43.49,7.73,0,3.22.09,7.14.27,11.76h-4.8c.2-4.04.29-8.47.29-13.3s-.1-8.8-.29-12.13h5.8c0,.69,1.61,3.44,4.82,8.26,3.42,5.12,5.39,8.59,5.9,10.41h.29c-.31-2.9-.47-5.51-.47-7.81,0-3.53-.09-7.15-.27-10.86h4.88c-.18,3.23-.27,7.27-.27,12.13s.09,9.33.27,13.3Z"/>
      <path class="cls-1" d="m488.47,231.67c0,5.18-4.24,7.77-12.71,7.77-1.47,0-3.76-.04-6.88-.12.17-3.93.25-8.37.25-13.3s-.08-8.78-.25-12.13h3.16c.6,0,1.6-.02,3.02-.06s2.52-.06,3.31-.06c5.77,0,8.65,1.88,8.65,5.62,0,2.89-1.48,4.8-4.43,5.74v.29c1.58.25,2.95.86,4.12,1.85s1.76,2.44,1.76,4.38Zm-6.7-10.72c0-2.33-1.46-3.5-4.38-3.5-1.34,0-2.53.1-3.57.29.14,1.32.21,3.57.21,6.78.5.03,1.02.04,1.56.04,4.11,0,6.17-1.2,6.17-3.61Zm1.43,10.94c0-2.59-2.27-3.89-6.82-3.89-.9,0-1.67.03-2.32.1,0,2.72.06,5.23.18,7.52.44.1,1.11.16,1.99.16,2.41,0,4.17-.29,5.29-.87s1.68-1.58,1.68-3.02Z"/>
      <path class="cls-1" d="m514.95,239.32h-6.25c0-.86-.59-3.29-1.78-7.3h-9.02c-1.22,3.95-1.84,6.38-1.84,7.3h-5.88c0-.51,1.52-4.67,4.56-12.5s4.56-12.14,4.56-12.93h7.38c0,.74,1.38,4.99,4.13,12.74s4.13,11.98,4.13,12.69Zm-9.02-11.04c-2.23-6.72-3.34-10.35-3.34-10.9h-.31c0,.51-1.15,4.14-3.46,10.9h7.11Z"/>
      <path class="cls-1" d="m536.07,213.89c0,.53-.74,1.97-2.23,4.32-2.28,3.58-3.67,5.81-4.16,6.68-1.48,2.64-2.23,4.6-2.23,5.88,0,2.86.08,5.72.23,8.55h-5.55c.14-2.85.21-5.72.21-8.61,0-1.33-.68-3.34-2.05-6.04-.64-1.25-1.91-3.48-3.83-6.7-1.37-2.3-2.05-3.67-2.05-4.08h6.13c0,.47.82,2.44,2.45,5.93s2.45,5.73,2.45,6.75h.31c0-.94.8-3.07,2.39-6.41s2.39-5.42,2.39-6.27h5.51Z"/>
    </g>
  </g>
</svg>