<svg width="25" height="25" viewBox="0 0 25 25" fill="none" xmlns="http://www.w3.org/2000/svg">
<path opacity="0.8" d="M6.65241 16.1613C5.13951 14.0965 4.46189 11.5366 4.75513 8.99358C5.04837 6.4506 6.29085 4.11212 8.23397 2.446C10.1771 0.779875 12.6776 -0.0910236 15.2352 0.00753841C17.7927 0.1061 20.2188 1.16685 22.028 2.97758C23.8372 4.78831 24.896 7.21547 24.9927 9.77348C25.0895 12.3315 24.2169 14.8317 22.5496 16.7739C20.8823 18.7161 18.5433 19.9571 16.0005 20.2485C13.4576 20.54 10.8985 19.8605 8.83514 18.3459H8.8367C8.78983 18.4084 8.73983 18.4678 8.68358 18.5256L2.66819 24.5418C2.37522 24.835 1.97778 24.9999 1.56331 25C1.14884 25.0001 0.751289 24.8356 0.458113 24.5426C0.164934 24.2496 0.000146866 23.8521 0 23.4376C-0.000146866 23.0231 0.164362 22.6254 0.457331 22.3322L6.47273 16.316C6.52859 16.2594 6.58866 16.2087 6.65241 16.1613ZM6.2493 10.1544C6.2493 11.2831 6.47158 12.4007 6.90344 13.4434C7.3353 14.4862 7.96828 15.4336 8.76626 16.2317C9.56423 17.0298 10.5116 17.6629 11.5542 18.0948C12.5968 18.5267 13.7142 18.749 14.8427 18.749C15.9712 18.749 17.0887 18.5267 18.1313 18.0948C19.1739 17.6629 20.1212 17.0298 20.9192 16.2317C21.7172 15.4336 22.3502 14.4862 22.782 13.4434C23.2139 12.4007 23.4362 11.2831 23.4362 10.1544C23.4362 7.87496 22.5308 5.68888 20.9192 4.07708C19.3076 2.46527 17.1218 1.55977 14.8427 1.55977C12.5636 1.55977 10.3778 2.46527 8.76626 4.07708C7.15468 5.68888 6.2493 7.87496 6.2493 10.1544Z" fill="black"/>
</svg>
